# xmcd
# 
# Track frame offsets:
#     150
#     24867
#     48790
#     72852
#     93600
#     120982
#     142640
#     165882
#     188010
#     214920
# 
# Disc length: 3230
# 
# Revision: 5
# Processed by: cddbd v1.5.2PL0 Copyright (c) Steve Scherf et al.
# Submitted via: fre:ac v1.0.27
# 
DISCID=720c9c0a
DTITLE=John Mayall and The Bluesbreakers - Dreaming About the Blues [CD1]
DYEAR=2000
DGENRE=Blues
TTITLE0=Chicago Line
TTITLE1=Gimme One More Day
TTITLE2=One Life to Live
TTITLE3=The Last Time
TTITLE4=Dream About The Blues
TTITLE5=Fascinatin' Lover
TTITLE6=Cold Blooded Woman
TTITLE7=The Dirty Dozen
TTITLE8=Tears Came Rollin' Down
TTITLE9=Life in The Jungle
EXTD=This compilation: copyright 1997 Charly Records (Portugal) Ltd.
EXTT0=
EXTT1=
EXTT2=
EXTT3=
EXTT4=
EXTT5=
EXTT6=
EXTT7=
EXTT8=
EXTT9=
PLAYORDER=
